<?xml version="1.0" standalone="no"?><!DOCTYPE svg PUBLIC "-//W3C//DTD SVG 1.1//EN" "http://www.w3.org/Graphics/SVG/1.1/DTD/svg11.dtd"><svg t="1609917198210" class="icon" viewBox="0 0 1024 1024" version="1.1" xmlns="http://www.w3.org/2000/svg" p-id="5816" xmlns:xlink="http://www.w3.org/1999/xlink" width="200" height="200"><defs><style type="text/css"></style></defs><path d="M170.667 0h682.666A170.667 170.667 0 0 1 1024 170.667v682.666A170.667 170.667 0 0 1 853.333 1024H170.667A170.667 170.667 0 0 1 0 853.333V170.667A170.667 170.667 0 0 1 170.667 0z m244.821 661.675L245.333 468.48a42.667 42.667 0 1 0-64 56.32L382.55 753.493a42.667 42.667 0 0 0 63.318 0.854L841.899 327.68a42.667 42.667 0 1 0-62.464-58.027L415.488 661.675z" fill="#FF5151" p-id="5817"></path></svg>