<?xml version="1.0" standalone="no"?><!DOCTYPE svg PUBLIC "-//W3C//DTD SVG 1.1//EN" "http://www.w3.org/Graphics/SVG/1.1/DTD/svg11.dtd"><svg t="1609921164915" class="icon" viewBox="0 0 1080 1024" version="1.1" xmlns="http://www.w3.org/2000/svg" p-id="5811" xmlns:xlink="http://www.w3.org/1999/xlink" width="210.9375" height="200"><defs><style type="text/css"></style></defs><path d="M536.178049 0.000569a507.050385 507.050385 0 0 1 507.733051 507.733051 507.050385 507.050385 0 0 1-507.733051 507.733051A507.050385 507.050385 0 0 1 28.444998 507.73362 507.050385 507.050385 0 0 1 536.178049 0.000569z" fill="#EB5454" p-id="5812"></path><path d="M333.369273 474.339861h406.584663c20.366211 0 33.905759 13.539548 33.905759 33.905759 0 20.309322-13.539548 33.84887-33.905759 33.84887H333.369273c-20.309322 0-33.84887-13.539548-33.848871-33.84887 0-20.366211 13.539548-33.905759 33.848871-33.905759z" fill="#FFFFFF" p-id="5813"></path></svg>