<?xml version="1.0" standalone="no"?><!DOCTYPE svg PUBLIC "-//W3C//DTD SVG 1.1//EN" "http://www.w3.org/Graphics/SVG/1.1/DTD/svg11.dtd"><svg t="1609917063176" class="icon" viewBox="0 0 1024 1024" version="1.1" xmlns="http://www.w3.org/2000/svg" p-id="4010" xmlns:xlink="http://www.w3.org/1999/xlink" width="200" height="200"><defs><style type="text/css"></style></defs><path d="M903.270267 267.010155L647.288792 10.97928c-7.311286-7.323637-14.634923-10.97928-25.601853-10.97928H219.430336C157.259702 0 109.72399 47.548062 109.72399 109.706346v804.574958c0 62.170635 47.535712 109.718696 109.706346 109.718696h585.100514c62.170635 0 109.706346-47.548062 109.706346-109.718696V292.562607c0-10.929879-3.643293-18.241166-10.966929-25.552452z m-281.583328-179.188267l204.79012 204.740719H621.686939z m219.425043 826.459416c0 21.946209-14.634923 36.581132-36.581132 36.581132H219.430336c-21.946209 0-36.581132-14.634923-36.581132-36.581132V109.780447c0-21.933859 14.634923-36.568782 36.581132-36.568782h329.119039v219.350942a73.359867 73.359867 0 0 0 73.137564 73.137564h219.425043z" fill="#707070" p-id="4011"></path><path d="M292.5679 402.318354H475.411811c21.946209 0 36.568782 14.622573 36.568782 36.568782s-14.622573 36.568782-36.568782 36.568782h-182.78216c-21.946209 0-36.581132-14.634923-36.581132-36.568782s14.634923-36.568782 36.581132-36.568782zM292.5679 548.593482h438.825386c21.946209 0 36.581132 14.622573 36.581132 36.568783s-14.634923 36.568782-36.581132 36.568782H292.5679c-21.946209 0-36.581132-14.622573-36.581132-36.568782s14.634923-36.568782 36.581132-36.568783zM292.5679 694.868611h438.825386c21.946209 0 36.581132 14.634923 36.581132 36.568782s-14.634923 36.605833-36.581132 36.605833H292.5679c-21.946209 0-36.581132-14.622573-36.581132-36.568783s14.634923-36.568782 36.581132-36.568782z" fill="#707070" p-id="4012"></path></svg>