<?xml version="1.0" standalone="no"?><!DOCTYPE svg PUBLIC "-//W3C//DTD SVG 1.1//EN" "http://www.w3.org/Graphics/SVG/1.1/DTD/svg11.dtd"><svg t="1609917272632" class="icon" viewBox="0 0 1024 1024" version="1.1" xmlns="http://www.w3.org/2000/svg" p-id="1780" xmlns:xlink="http://www.w3.org/1999/xlink" width="200" height="200"><defs><style type="text/css"></style></defs><path d="M869.688195 1011.212488h-714.677073c-77.973854 0-141.761561-63.26322-141.761561-141.886439V154.549073c0-78.04878 63.188293-141.886439 141.749073-141.886439h714.102634c77.961366 0 141.749073 63.250732 141.749073 141.886439v714.776976c0 78.62322-63.188293 141.886439-141.162146 141.886439zM155.011122 79.459902c-41.347122 0-75.613659 33.704585-75.613659 75.676098v714.776976c0 41.384585 33.667122 75.676098 75.601171 75.676097h714.102634c41.334634 0 75.601171-33.704585 75.601171-75.676097V154.549073c0-41.384585-33.667122-75.676098-75.601171-75.676097l-714.102634 0.586926z" p-id="1781" fill="#707070"></path></svg>